<svg id="Capa_1" data-name="Capa 1" xmlns="http://www.w3.org/2000/svg" viewBox="0 0 100.94 92.97"><defs><style>.cls-1{fill:#ccccd6;stroke:#ccccd6;stroke-miterlimit:10;stroke-width:1.3px;}</style></defs><title>fullscreen</title><g id="Fullscreen"><path class="cls-1" d="M306.32,213.53a3,3,0,0,0-3.11-2.86h-28a3,3,0,0,0-3.09,2.91,2.88,2.88,0,0,0,3.09,2.82h24.86l0,23a3.12,3.12,0,0,0,6.23,0l0-25.8v0Z" transform="translate(-206.03 -210.02)"/><path class="cls-1" d="M237.87,210.67h-28a3,3,0,0,0-3.11,2.86l0,25.8a3,3,0,0,0,3.16,2.84,2.88,2.88,0,0,0,3.06-2.84l0-22.94h24.91a2.87,2.87,0,1,0,0-5.73Z" transform="translate(-206.03 -210.02)"/><path class="cls-1" d="M237.77,296.6H212.91V273.69a3.12,3.12,0,0,0-6.23,0v25.78a3,3,0,0,0,3.11,2.86h28a3,3,0,0,0,3.09-2.91A2.88,2.88,0,0,0,237.77,296.6Z" transform="translate(-206.03 -210.02)"/><path class="cls-1" d="M303.15,270.89a2.88,2.88,0,0,0-3.06,2.84V296.6H275.18a2.87,2.87,0,1,0,0,5.73h28a3,3,0,0,0,3.11-2.86V273.73A3,3,0,0,0,303.15,270.89Z" transform="translate(-206.03 -210.02)"/></g></svg>