<svg id="Capa_1" data-name="Capa 1" xmlns="http://www.w3.org/2000/svg" viewBox="0 0 183 167.55"><defs><style>.cls-1{fill:#e1e1e5;}</style></defs><title>speaker</title><path class="cls-1" d="M258.6,175.71a10.8,10.8,0,0,0-5.55,1.55,3.27,3.27,0,0,0-.46.33l-47.67,40.08H167.52a3.5,3.5,0,0,0-3.52,3.5V287.6a3.5,3.5,0,0,0,3.52,3.5h37.32l47.64,43.48a3.43,3.43,0,0,0,.57.42,10.8,10.8,0,0,0,5.55,1.55,11,11,0,0,0,10.93-11V186.75A11,11,0,0,0,258.6,175.71ZM209.73,284.11a3.52,3.52,0,0,1-7,0v-14a3.52,3.52,0,0,1,7,0Zm0-45.45a3.52,3.52,0,0,1-7,0v-14a3.52,3.52,0,0,1,7,0Z" transform="translate(-164 -169)"/><path class="cls-1" d="M300.47,189.89a3.5,3.5,0,1,0-2.26,6.63,61,61,0,0,1,.08,115.76,3.5,3.5,0,0,0,2.27,6.62,68,68,0,0,0-.09-129Z" transform="translate(-164 -169)"/><path class="cls-1" d="M315.35,254.39a47.45,47.45,0,0,0-34.29-45.32,3.5,3.5,0,1,0-1.95,6.72,40.11,40.11,0,0,1,0,77.2,3.49,3.49,0,0,0,1,6.86,3.6,3.6,0,0,0,1-.14A47.45,47.45,0,0,0,315.35,254.39Z" transform="translate(-164 -169)"/><line class="cls-1" x1="165" y2="165"/></svg>